<svg width="208" height="179" viewBox="0 0 208 179" fill="none" xmlns="http://www.w3.org/2000/svg">
<g opacity="0.5" filter="url(#filter0_d_532_144488)">
<path d="M188.334 85.5C188.334 132.72 150.126 171 102.994 171C55.8622 171 17.6543 132.72 17.6543 85.5C17.6543 38.2797 55.8622 0 102.994 0C150.126 0 188.334 38.2797 188.334 85.5ZM27.8951 85.5C27.8951 127.054 61.5181 160.74 102.994 160.74C144.47 160.74 178.093 127.054 178.093 85.5C178.093 43.9461 144.47 10.26 102.994 10.26C61.5181 10.26 27.8951 43.9461 27.8951 85.5Z" fill="#1F2B7B"/>
<path d="M174.679 85.4997C174.679 45.8346 142.585 13.6797 102.994 13.6797C63.4033 13.6797 31.3086 45.8346 31.3086 85.4997C31.3086 125.165 63.4033 157.32 102.994 157.32" stroke="#1F2B7B" stroke-width="0.773087"/>
<path d="M152.653 85.5022C152.653 112.983 130.417 135.256 102.995 135.256C75.5724 135.256 53.3372 112.983 53.3372 85.5022C53.3372 58.0211 75.5724 35.7483 102.995 35.7483C130.417 35.7483 152.653 58.0211 152.653 85.5022Z" stroke="#1F2B7B" stroke-width="3.09235"/>
<path d="M58.6172 85.0721C58.6172 109.863 78.6764 129.96 103.421 129.96C128.165 129.96 148.224 109.863 148.224 85.0721C148.224 60.2814 128.165 40.1846 103.421 40.1846" stroke="#1F2B7B" stroke-width="0.773087"/>
<g filter="url(#filter1_b_532_144488)">
<rect width="193.593" height="55.575" rx="6.1847" transform="matrix(0.941499 -0.337015 0.335896 0.941899 3.63086 93.1582)" fill="white" fill-opacity="0.4"/>
</g>
<rect x="-0.493769" y="-0.233814" width="193.682" height="55.4815" rx="6.57124" transform="matrix(0.941499 -0.337015 0.335896 0.941899 4.04965 93.0485)" stroke="#1F2B7B" stroke-width="0.773087"/>
<path d="M42.9378 114.799L38.9753 116.182L37.8626 113.135L41.6873 111.8C42.5194 111.509 43.1724 111.124 43.6462 110.644C44.1231 110.157 44.3931 109.544 44.4562 108.806C44.5224 108.061 44.3613 107.157 43.9728 106.093C43.5844 105.029 43.125 104.234 42.5948 103.708C42.0628 103.177 41.4531 102.875 40.7657 102.8C40.0814 102.719 39.3135 102.827 38.4619 103.124L34.6228 104.464L33.5101 101.417L37.5307 100.013C39.0451 99.4847 40.4571 99.3255 41.7668 99.5359C43.0795 99.7397 44.2356 100.291 45.2349 101.191C46.2326 102.085 47.0118 103.3 47.5725 104.836C48.135 106.376 48.3208 107.804 48.13 109.119C47.944 110.432 47.41 111.577 46.5279 112.552C45.644 113.523 44.4474 114.272 42.9378 114.799ZM35.6365 100.675L41.0364 115.462L37.444 116.717L32.0441 101.929L35.6365 100.675ZM32.948 110.544L32.2256 108.566L39.7515 105.938L40.4739 107.917L32.948 110.544ZM55.5834 110.596C54.8722 110.844 54.1977 110.946 53.5601 110.903C52.9254 110.853 52.3606 110.643 51.8655 110.273C51.3735 109.897 50.9939 109.343 50.7267 108.611C50.5017 107.995 50.4207 107.437 50.4838 106.938C50.5468 106.438 50.7211 105.989 51.0066 105.591C51.2922 105.193 51.6595 104.839 52.1086 104.531C52.556 104.217 53.0539 103.937 53.6024 103.692C54.2151 103.412 54.7036 103.174 55.0678 102.976C55.4303 102.774 55.6766 102.582 55.8069 102.401C55.9402 102.213 55.9655 102.006 55.8829 101.78L55.8697 101.744C55.7344 101.373 55.5016 101.132 55.1713 101.019C54.8411 100.906 54.4582 100.926 54.0228 101.078C53.5535 101.242 53.213 101.475 53.0014 101.777C52.7897 102.078 52.7102 102.421 52.7629 102.804L49.4476 103.831C49.2983 103.124 49.3278 102.435 49.536 101.765C49.7473 101.089 50.1508 100.476 50.7464 99.926C51.3451 99.3697 52.1428 98.9175 53.1395 98.5695C53.8507 98.3212 54.5371 98.1766 55.1986 98.1356C55.8583 98.0898 56.4687 98.1481 57.0298 98.3104C57.5892 98.4679 58.0733 98.7331 58.4822 99.1059C58.896 99.4771 59.2101 99.9563 59.4245 100.544L62.1772 108.082L58.8388 109.247L58.2745 107.702L58.1874 107.733C58.1262 108.177 57.9882 108.584 57.7734 108.952C57.5635 109.318 57.2743 109.639 56.9057 109.914C56.5419 110.188 56.1011 110.415 55.5834 110.596ZM55.8356 107.902C56.2178 107.769 56.5332 107.572 56.7817 107.312C57.0351 107.049 57.2046 106.751 57.29 106.418C57.3736 106.079 57.3496 105.729 57.2177 105.368L56.8328 104.314C56.7505 104.403 56.6447 104.494 56.5154 104.588C56.3909 104.68 56.251 104.775 56.0957 104.873C55.9404 104.97 55.7786 105.065 55.6101 105.156C55.4416 105.248 55.2795 105.334 55.1238 105.415C54.8093 105.585 54.5538 105.766 54.3571 105.96C54.1653 106.152 54.039 106.359 53.9783 106.581C53.9206 106.796 53.9357 107.024 54.0236 107.265C54.1572 107.631 54.3897 107.864 54.7213 107.966C55.0577 108.065 55.4292 108.044 55.8356 107.902ZM50.7826 98.0084L48.9267 98.64C48.5699 97.6628 48.5347 96.842 48.8212 96.1775C49.1077 95.5131 49.5863 95.061 50.2571 94.8214C50.6151 94.6964 50.941 94.6478 51.2348 94.6755C51.5317 94.6967 51.805 94.7505 52.0548 94.837C52.3076 94.9169 52.5398 94.9851 52.7513 95.0416C52.966 95.0915 53.17 95.0826 53.3635 95.0151C53.6376 94.914 53.8039 94.7419 53.8624 94.499C53.9241 94.2495 53.8949 93.953 53.775 93.6096L55.6045 92.9953C55.9433 93.9679 55.9736 94.7904 55.6954 95.4628C55.4155 96.1304 54.9426 96.5832 54.2767 96.8211C53.9107 96.9543 53.5785 97.0079 53.2798 96.9819C52.9812 96.9559 52.7103 96.9012 52.4671 96.8178C52.2288 96.7328 52.0047 96.6645 51.795 96.6129C51.5835 96.5565 51.3761 96.5637 51.1729 96.6347C50.9358 96.7174 50.7799 96.8804 50.705 97.1237C50.6284 97.3621 50.6543 97.657 50.7826 98.0084ZM70.9801 92.5039L71.9293 95.1034L64.8969 97.5585L63.9477 94.9591L70.9801 92.5039ZM64.4507 91.7875L67.9995 90.5486L71.7462 100.809C71.8253 101.026 71.9233 101.19 72.0403 101.301C72.1603 101.405 72.2986 101.463 72.4552 101.473C72.61 101.479 72.7817 101.449 72.9704 101.383C73.1059 101.336 73.2442 101.274 73.3854 101.197C73.5297 101.115 73.637 101.05 73.7074 101.004L75.1752 103.365C75.0234 103.472 74.8059 103.616 74.5226 103.796C74.2442 103.975 73.8956 104.148 73.4769 104.316C72.6587 104.645 71.9099 104.798 71.2305 104.775C70.5541 104.745 69.9681 104.537 69.4726 104.151C68.9819 103.763 68.6043 103.192 68.3397 102.438L64.4507 91.7875ZM78.3194 95.3148L80.6291 101.64L77.0802 102.879L71.6804 88.0912L75.1131 86.8928L77.2066 92.626L77.33 92.5829C77.332 91.8115 77.5481 91.1336 77.9784 90.5492C78.4135 89.9631 79.0472 89.5248 79.8794 89.2342C80.6632 88.9606 81.4086 88.8957 82.1158 89.0396C82.8212 89.1787 83.4478 89.5054 83.9956 90.0197C84.5483 90.5323 84.9752 91.2083 85.2762 92.0476L87.8574 99.1165L84.3086 100.356L81.9804 93.9797C81.7603 93.3619 81.4297 92.9345 80.9886 92.6977C80.5476 92.4609 80.0416 92.4422 79.4707 92.6415C79.0981 92.7716 78.799 92.9683 78.5733 93.2316C78.3507 93.4884 78.2141 93.7939 78.1634 94.1481C78.1175 94.5006 78.1695 94.8895 78.3194 95.3148ZM93.2838 97.4338C92.5725 97.6821 91.8981 97.7846 91.2604 97.7413C90.6258 97.6915 90.0609 97.4816 89.5658 97.1117C89.0738 96.7353 88.6942 96.1813 88.427 95.4496C88.202 94.8334 88.121 94.2755 88.1841 93.7759C88.2471 93.2763 88.4214 92.8274 88.707 92.4292C88.9925 92.031 89.3598 91.6775 89.809 91.3688C90.2563 91.0552 90.7543 90.7755 91.3028 90.5297C91.9155 90.2507 92.4039 90.0123 92.7682 89.8146C93.1306 89.6121 93.3769 89.4203 93.5072 89.2391C93.6405 89.0515 93.6658 88.8445 93.5832 88.6183L93.57 88.5822C93.4347 88.2115 93.2019 87.9698 92.8716 87.8572C92.5414 87.7445 92.1585 87.7642 91.7231 87.9162C91.2538 88.0801 90.9133 88.3129 90.7017 88.6148C90.4901 88.9166 90.4106 89.2591 90.4632 89.6424L87.148 90.6695C86.9986 89.9618 87.0281 89.2731 87.2363 88.6034C87.4476 87.9272 87.8511 87.3142 88.4467 86.7643C89.0455 86.2079 89.8432 85.7557 90.8398 85.4078C91.5511 85.1595 92.2374 85.0148 92.8989 84.9739C93.5586 84.9281 94.169 84.9864 94.7301 85.1487C95.2895 85.3062 95.7737 85.5713 96.1826 85.9442C96.5963 86.3153 96.9104 86.7946 97.1248 87.3818L99.8775 94.9202L96.5391 96.0856L95.9748 94.5404L95.8878 94.5708C95.8265 95.0156 95.6885 95.4219 95.4738 95.79C95.2639 96.1563 94.9746 96.4771 94.606 96.7524C94.2422 97.0259 93.8014 97.2531 93.2838 97.4338ZM93.5359 94.7406C93.9181 94.6072 94.2335 94.4102 94.4821 94.1498C94.7355 93.8876 94.9049 93.5897 94.9903 93.2559C95.074 92.9174 95.0499 92.5676 94.918 92.2065L94.5331 91.1523C94.4508 91.2407 94.345 91.332 94.2157 91.4259C94.0912 91.5183 93.9513 91.6132 93.7961 91.7109C93.6408 91.8085 93.4789 91.903 93.3104 91.9944C93.142 92.0857 92.9799 92.1722 92.8242 92.2537C92.5097 92.4232 92.2541 92.6047 92.0574 92.7982C91.8656 92.99 91.7393 93.1969 91.6786 93.4189C91.6209 93.6344 91.636 93.8625 91.7239 94.1032C91.8575 94.469 92.0901 94.7026 92.4217 94.804C92.7581 94.9036 93.1295 94.8825 93.5359 94.7406ZM103.287 86.5984L105.596 92.9236L102.047 94.1626L97.9976 83.0717L101.372 81.8936L102.116 83.9298L102.239 83.8867C102.238 83.1218 102.465 82.443 102.919 81.8501C103.372 81.2524 104.01 80.81 104.832 80.5229C105.616 80.2492 106.36 80.1876 107.064 80.338C107.771 80.4819 108.399 80.811 108.946 81.3253C109.497 81.8331 109.922 82.5043 110.222 83.3387L112.803 90.4077L109.254 91.6467L106.926 85.2709C106.706 84.653 106.373 84.2265 105.927 83.9914C105.486 83.7546 104.985 83.7342 104.423 83.9301C104.051 84.0602 103.752 84.2569 103.526 84.5202C103.303 84.777 103.169 85.0817 103.123 85.4342C103.082 85.785 103.137 86.1731 103.287 86.5984ZM116.239 82.0764L118.549 88.4017L115 89.6406L109.6 74.8528L113.033 73.6544L115.126 79.3876L115.25 79.3445C115.252 78.5731 115.468 77.8952 115.898 77.3108C116.333 76.7247 116.967 76.2864 117.799 75.9958C118.583 75.7222 119.329 75.6573 120.036 75.8012C120.741 75.9403 121.368 76.267 121.916 76.7813C122.468 77.2939 122.895 77.9699 123.196 78.8092L125.777 85.8781L122.228 87.1171L119.9 80.7413C119.68 80.1234 119.35 79.6961 118.908 79.4593C118.467 79.2225 117.961 79.2038 117.391 79.4031C117.018 79.5332 116.719 79.7299 116.493 79.9932C116.271 80.25 116.134 80.5555 116.083 80.9097C116.037 81.2622 116.089 81.6511 116.239 82.0764ZM134.626 70.2843L135.575 72.8837L128.542 75.3389L127.593 72.7394L134.626 70.2843ZM128.096 69.5679L131.645 68.329L135.392 78.5895C135.471 78.8061 135.569 78.9699 135.686 79.0811C135.806 79.1857 135.944 79.2433 136.101 79.2537C136.255 79.2594 136.427 79.2293 136.616 79.1634C136.751 79.1161 136.89 79.0543 137.031 78.9778C137.175 78.8949 137.283 78.8303 137.353 78.784L138.821 81.1454C138.669 81.2526 138.451 81.3964 138.168 81.5767C137.89 81.7554 137.541 81.9286 137.122 82.0965C136.304 82.4255 135.555 82.5784 134.876 82.5551C134.2 82.5253 133.614 82.3174 133.118 81.9314C132.627 81.5437 132.25 80.9726 131.985 80.2183L128.096 69.5679ZM145.646 79.1776C144.476 79.5864 143.382 79.6994 142.366 79.5168C141.354 79.3276 140.463 78.884 139.696 78.1859C138.931 77.4813 138.341 76.561 137.927 75.425C137.51 74.2841 137.37 73.2067 137.507 72.1928C137.647 71.1724 138.049 70.2778 138.712 69.509C139.378 68.7337 140.297 68.1417 141.467 67.7329C142.638 67.3242 143.73 67.2144 144.743 67.4035C145.759 67.5862 146.649 68.0298 147.414 68.7344C148.181 69.4324 148.773 70.3519 149.19 71.4927C149.605 72.6288 149.742 73.707 149.602 74.7275C149.465 75.7414 149.063 76.636 148.397 77.4113C147.734 78.1801 146.817 78.7688 145.646 79.1776ZM144.695 76.5056C145.121 76.3569 145.434 76.1011 145.634 75.7382C145.835 75.3752 145.928 74.9356 145.914 74.4194C145.905 73.9016 145.789 73.3394 145.568 72.7328C145.343 72.1167 145.066 71.6054 144.738 71.199C144.414 70.791 144.057 70.5085 143.667 70.3516C143.277 70.1947 142.869 70.1905 142.444 70.3392C142.003 70.4929 141.678 70.7529 141.468 71.1193C141.263 71.4839 141.165 71.9252 141.174 72.4431C141.188 72.9592 141.308 73.5254 141.533 74.1416C141.754 74.7481 142.027 75.2554 142.35 75.6635C142.679 76.0698 143.04 76.3506 143.435 76.5059C143.835 76.6594 144.255 76.6593 144.695 76.5056ZM156.231 75.4581C155.52 75.7064 154.845 75.8088 154.207 75.7655C153.573 75.7157 153.008 75.5059 152.513 75.136C152.021 74.7596 151.641 74.2055 151.374 73.4738C151.149 72.8577 151.068 72.2998 151.131 71.8002C151.194 71.3005 151.368 70.8516 151.654 70.4534C151.939 70.0552 152.307 69.7018 152.756 69.393C153.203 69.0794 153.701 68.7998 154.25 68.554C154.862 68.275 155.351 68.0366 155.715 67.8389C156.078 67.6364 156.324 67.4445 156.454 67.2634C156.587 67.0757 156.613 66.8688 156.53 66.6425L156.517 66.6064C156.382 66.2358 156.149 65.9941 155.819 65.8814C155.488 65.7688 155.106 65.7885 154.67 65.9405C154.201 66.1043 153.86 66.3372 153.649 66.639C153.437 66.9408 153.358 67.2834 153.41 67.6666L150.095 68.6938C149.946 67.9861 149.975 67.2974 150.183 66.6277C150.395 65.9514 150.798 65.3384 151.394 64.7885C151.992 64.2322 152.79 63.78 153.787 63.432C154.498 63.1837 155.184 63.0391 155.846 62.9981C156.506 62.9523 157.116 63.0106 157.677 63.1729C158.236 63.3304 158.721 63.5956 159.13 63.9684C159.543 64.3396 159.857 64.8188 160.072 65.4061L162.824 72.9444L159.486 74.1099L158.922 72.5647L158.835 72.5951C158.773 73.0398 158.635 73.4462 158.421 73.8142C158.211 74.1806 157.922 74.5014 157.553 74.7766C157.189 75.0502 156.748 75.2773 156.231 75.4581ZM156.483 72.7649C156.865 72.6314 157.18 72.4345 157.429 72.174C157.682 71.9119 157.852 71.6139 157.937 71.2802C158.021 70.9416 157.997 70.5918 157.865 70.2308L157.48 69.1766C157.398 69.265 157.292 69.3562 157.163 69.4502C157.038 69.5425 156.898 69.6375 156.743 69.7351C156.588 69.8327 156.426 69.9272 156.257 70.0186C156.089 70.11 155.927 70.1964 155.771 70.2779C155.457 70.4474 155.201 70.6289 155.004 70.8224C154.813 71.0142 154.686 71.2211 154.626 71.4431C154.568 71.6587 154.583 71.8868 154.671 72.1275C154.804 72.4933 155.037 72.7269 155.369 72.8282C155.705 72.9279 156.076 72.9068 156.483 72.7649ZM152.222 62.5535L152.499 58.7852L155.642 57.6882L154.639 61.7098L152.222 62.5535ZM166.234 64.6226L168.543 70.9479L164.994 72.1868L160.945 61.096L164.319 59.9178L165.063 61.954L165.186 61.911C165.185 61.1461 165.412 60.4672 165.866 59.8744C166.319 59.2767 166.957 58.8343 167.779 58.5471C168.563 58.2735 169.307 58.2119 170.011 58.3623C170.718 58.5062 171.346 58.8353 171.893 59.3496C172.444 59.8574 172.869 60.5285 173.169 61.363L175.75 68.432L172.201 69.6709L169.873 63.2951C169.653 62.6773 169.32 62.2508 168.874 62.0157C168.433 61.7789 167.932 61.7585 167.37 61.9544C166.998 62.0844 166.699 62.2811 166.473 62.5445C166.25 62.8013 166.116 63.106 166.07 63.4585C166.029 63.8093 166.084 64.1973 166.234 64.6226Z" fill="#1F2B7B"/>
</g>
<defs>
<filter id="filter0_d_532_144488" x="0" y="0" width="208" height="179" filterUnits="userSpaceOnUse" color-interpolation-filters="sRGB">
<feFlood flood-opacity="0" result="BackgroundImageFix"/>
<feColorMatrix in="SourceAlpha" type="matrix" values="0 0 0 0 0 0 0 0 0 0 0 0 0 0 0 0 0 0 127 0" result="hardAlpha"/>
<feOffset dy="4"/>
<feGaussianBlur stdDeviation="2"/>
<feComposite in2="hardAlpha" operator="out"/>
<feColorMatrix type="matrix" values="0 0 0 0 0 0 0 0 0 0 0 0 0 0 0 0 0 0 0.25 0"/>
<feBlend mode="normal" in2="BackgroundImageFix" result="effect1_dropShadow_532_144488"/>
<feBlend mode="normal" in="SourceGraphic" in2="effect1_dropShadow_532_144488" result="shape"/>
</filter>
<filter id="filter1_b_532_144488" x="-10.1141" y="14.174" width="228.425" height="145.071" filterUnits="userSpaceOnUse" color-interpolation-filters="sRGB">
<feFlood flood-opacity="0" result="BackgroundImageFix"/>
<feGaussianBlur in="BackgroundImageFix" stdDeviation="7.73087"/>
<feComposite in2="SourceAlpha" operator="in" result="effect1_backgroundBlur_532_144488"/>
<feBlend mode="normal" in="SourceGraphic" in2="effect1_backgroundBlur_532_144488" result="shape"/>
</filter>
</defs>
</svg>
